<?xml version="1.0" standalone="no"?>
<!DOCTYPE svg PUBLIC "-//W3C//DTD SVG 20010904//EN"
 "http://www.w3.org/TR/2001/REC-SVG-20010904/DTD/svg10.dtd">
<svg version="1.0" xmlns="http://www.w3.org/2000/svg"
 width="1024.000000pt" height="1024.000000pt" viewBox="0 0 1024.000000 1024.000000"
 preserveAspectRatio="xMidYMid meet">

<g transform="translate(0.000000,1024.000000) scale(0.100000,-0.100000)"
fill="#000000" stroke="none">
<path d="M5154 8584 c18 -70 26 -147 26 -255 0 -195 -42 -315 -196 -559 -43
-69 -93 -163 -111 -210 -91 -243 -27 -467 171 -598 56 -36 68 -35 38 3 -61 77
-88 256 -58 374 19 76 51 133 163 298 142 211 176 299 176 463 0 152 -49 297
-148 436 -54 76 -71 89 -61 48z"/>
<path d="M4800 8133 c0 -119 -22 -178 -107 -292 -159 -210 -178 -249 -178
-371 0 -75 4 -93 32 -153 29 -61 119 -167 143 -167 4 0 -1 27 -11 61 -41 131
-18 263 72 409 99 162 108 180 125 237 32 111 6 265 -60 348 -14 19 -15 14
-16 -72z"/>
<path d="M5551 7910 c0 -74 -4 -93 -32 -148 -17 -35 -50 -87 -73 -115 -83
-102 -154 -203 -179 -252 -84 -169 -74 -330 28 -442 23 -26 45 -46 48 -43 3 3
1 26 -4 50 -6 25 -9 77 -6 116 5 98 44 177 142 289 150 174 193 263 181 384
-5 62 -50 175 -89 226 -14 18 -15 13 -16 -65z"/>
<path d="M4555 7023 c-390 -24 -698 -92 -813 -179 -59 -46 -72 -78 -72 -179 1
-304 118 -697 285 -950 178 -271 361 -402 666 -480 l94 -23 -55 -1 c-69 -1
-341 24 -491 45 -419 58 -719 176 -719 283 0 54 107 124 287 187 129 45 102
57 -63 29 -256 -44 -458 -148 -477 -244 -22 -109 120 -219 402 -311 103 -33
238 -66 529 -127 39 -8 72 -17 72 -21 0 -3 -63 -2 -140 1 -84 3 -142 2 -145
-4 -4 -5 -4 -9 -2 -9 2 0 40 -9 83 -19 93 -23 344 -55 569 -73 246 -19 927
-16 1150 5 312 30 602 78 589 99 -3 5 -76 6 -167 2 -89 -4 -160 -4 -157 -1 3
3 79 20 170 37 273 52 465 108 595 173 201 100 270 208 194 300 -38 46 -85 77
-159 104 -90 34 -210 42 -210 14 0 -4 19 -17 43 -27 62 -28 117 -81 117 -113
0 -57 -110 -131 -275 -184 -186 -61 -488 -113 -755 -131 -275 -18 -283 -18
-276 -7 4 6 19 11 34 11 42 0 217 47 301 81 144 57 243 126 361 248 62 64 68
69 130 80 309 57 596 217 719 402 101 151 89 372 -27 492 -97 100 -284 133
-425 73 l-37 -15 0 75 c0 41 -6 89 -14 107 -46 111 -264 187 -661 232 -138 16
-244 18 -285 6 -24 -7 -23 -8 15 -20 22 -6 105 -24 185 -40 353 -71 494 -114
534 -162 24 -28 25 -33 12 -57 -32 -61 -169 -131 -420 -213 -102 -33 -186 -63
-186 -66 0 -3 51 -3 113 0 118 6 270 33 376 67 35 11 65 20 67 20 16 0 -8
-193 -40 -334 -85 -364 -302 -663 -585 -806 -198 -99 -600 -120 -883 -44 -373
100 -646 409 -772 875 -28 105 -61 297 -52 306 3 3 34 -3 68 -15 135 -44 393
-89 648 -112 147 -14 569 -15 582 -2 7 7 -4 12 -33 16 -126 16 -225 27 -319
36 -443 45 -844 156 -948 263 -30 31 -31 34 -16 55 39 56 141 86 559 167 333
64 325 62 305 75 -14 9 -65 10 -175 3z m2140 -574 c90 -24 145 -124 125 -227
-24 -129 -119 -232 -298 -321 -69 -35 -215 -91 -237 -91 -9 0 -2 22 21 68 33
65 104 267 104 296 0 8 12 52 26 97 38 120 101 177 209 188 6 0 28 -4 50 -10z"/>
<path d="M4770 6853 c-249 -24 -375 -46 -513 -89 -90 -29 -187 -73 -187 -85 0
-33 265 -107 516 -145 148 -22 607 -30 812 -15 266 20 548 74 647 124 l39 20
-27 21 c-31 25 -167 77 -277 106 -193 50 -417 71 -750 68 -124 0 -241 -3 -260
-5z"/>
<path d="M2979 4592 c-220 -73 -336 -320 -262 -557 61 -195 257 -312 463 -277
67 11 161 50 174 71 5 8 -28 116 -39 129 -2 2 -23 -7 -47 -19 -59 -31 -172
-38 -232 -15 -50 19 -107 77 -132 133 -12 25 -17 67 -18 124 -1 76 2 92 29
144 20 40 45 69 73 90 40 27 51 30 126 30 70 0 90 -4 135 -28 30 -15 55 -26
56 -25 1 2 15 34 30 72 33 78 33 79 -55 119 -65 29 -224 34 -301 9z"/>
<path d="M3800 4595 c-176 -50 -283 -207 -284 -415 0 -105 20 -177 74 -258 77
-114 178 -165 325 -165 145 1 251 55 324 164 60 90 76 147 75 264 -3 193 -75
314 -232 388 -78 36 -196 46 -282 22z m199 -165 c121 -61 169 -266 96 -410
-51 -101 -175 -141 -276 -90 -158 81 -158 416 1 501 47 25 129 25 179 -1z"/>
<path d="M4510 4180 l0 -410 85 0 85 0 0 165 0 165 145 0 145 0 0 70 0 70
-145 0 -145 0 0 100 0 100 165 0 165 0 0 75 0 75 -250 0 -250 0 0 -410z"/>
<path d="M5240 4180 l0 -410 90 0 90 0 0 165 0 165 145 0 146 0 -3 72 -3 71
-142 -2 -143 -2 0 100 0 101 170 0 170 0 0 75 0 75 -260 0 -260 0 0 -410z"/>
<path d="M6010 4180 l0 -410 270 0 270 0 0 70 0 70 -185 0 -185 0 0 105 0 105
145 0 145 0 0 65 0 65 -145 0 -145 0 0 95 0 95 175 0 175 0 0 75 0 75 -260 0
-260 0 0 -410z"/>
<path d="M6810 4180 l0 -410 273 0 272 0 -3 70 -4 70 -179 0 -179 0 0 105 0
105 140 0 140 0 0 65 0 65 -140 0 -140 0 0 95 0 95 175 0 175 0 0 75 0 75
-265 0 -265 0 0 -410z"/>
<path d="M4088 3519 c-20 -6 -53 -25 -74 -43 -34 -30 -38 -38 -42 -94 -4 -61
-4 -63 35 -101 28 -28 57 -45 107 -60 81 -25 96 -35 96 -67 0 -47 -74 -58
-162 -24 -28 11 -52 19 -53 17 0 -1 -11 -21 -23 -44 l-23 -42 41 -21 c107 -54
236 -46 302 19 39 40 55 91 43 138 -11 47 -75 98 -146 117 -70 20 -99 39 -99
67 0 41 77 51 146 20 l41 -19 22 44 c11 25 21 46 21 47 0 2 -20 14 -45 26 -52
26 -134 35 -187 20z"/>
<path d="M5270 3521 c-115 -35 -179 -127 -180 -257 0 -81 15 -127 62 -179 49
-56 101 -79 183 -79 53 0 80 5 110 21 75 40 120 102 136 187 11 61 1 132 -26
186 -47 93 -184 151 -285 121z m135 -123 c35 -27 55 -75 55 -133 0 -94 -49
-155 -125 -155 -76 0 -125 61 -125 155 0 94 49 155 125 155 28 0 51 -7 70 -22z"/>
<path d="M4500 3265 l0 -255 60 0 60 0 0 105 0 105 95 0 95 0 0 -105 0 -105
60 0 60 0 0 255 0 255 -60 0 -60 0 0 -100 0 -100 -95 0 -95 0 0 100 0 100 -60
0 -60 0 0 -255z"/>
<path d="M5750 3265 l0 -255 60 0 60 0 0 79 0 78 69 5 c112 8 172 51 191 134
11 50 -4 121 -33 153 -44 48 -92 61 -224 61 l-123 0 0 -255z m234 134 c34 -27
35 -71 1 -104 -13 -14 -34 -25 -47 -25 -13 0 -33 -3 -45 -6 -22 -6 -23 -4 -23
75 l0 81 44 0 c29 0 52 -7 70 -21z"/>
<path d="M3565 3335 c-28 -28 -32 -63 -10 -105 41 -80 170 -20 150 70 -13 61
-95 81 -140 35z"/>
<path d="M6415 3335 c-54 -54 -13 -145 65 -145 33 0 80 53 80 90 0 71 -94 107
-145 55z"/>
<path d="M2950 3300 c-188 -7 -243 -15 -237 -33 7 -22 92 -28 422 -30 l330 -2
0 35 0 35 -170 1 c-93 0 -249 -2 -345 -6z"/>
<path d="M6645 3292 c-3 -12 -3 -31 0 -42 6 -19 15 -20 198 -20 251 1 506 15
521 30 27 27 -48 35 -470 46 -241 7 -242 7 -249 -14z"/>
</g>
</svg>
